<?xml version="1.0" encoding="iso-8859-1"?>
<!-- Uploaded to: SVG Repo, www.svgrepo.com, Generator: SVG Repo Mixer Tools -->
<svg height="800px" width="800px" version="1.1" id="Layer_1" xmlns="http://www.w3.org/2000/svg" xmlns:xlink="http://www.w3.org/1999/xlink" 
	 viewBox="0 0 512 512" xml:space="preserve">
<path style="fill:#FFDC64;" d="M495.432,119.182H384.267v8.551c0,9.445-7.658,17.102-17.102,17.102
	c-9.445,0-17.102-7.658-17.102-17.102v-8.551H16.568c-4.722,0-8.551,3.829-8.551,8.551v256.534c0,4.722,3.829,8.551,8.551,8.551
	h333.495v-8.551c0-9.445,7.658-17.102,17.102-17.102c9.445,0,17.102,7.658,17.102,17.102v8.551h111.165
	c4.722,0,8.551-3.829,8.551-8.551V127.733C503.983,123.01,500.155,119.182,495.432,119.182z"/>
<path style="fill:#FFC850;" d="M367.165,367.165c9.445,0,17.102,7.658,17.102,17.102v8.551h111.165c4.722,0,8.551-3.829,8.551-8.551
	V127.733c0-4.722-3.829-8.551-8.551-8.551H384.267v8.551c0,9.445-7.658,17.102-17.102,17.102V367.165z"/>
<path d="M495.432,111.165H384.267c-4.427,0-8.017,3.589-8.017,8.017v8.551c0,5.01-4.076,9.086-9.086,9.086s-9.086-4.076-9.086-9.086
	v-8.551c0-4.427-3.589-8.017-8.017-8.017H16.568C7.432,111.165,0,118.597,0,127.733v256.534c0,9.136,7.432,16.568,16.568,16.568
	h333.495c4.427,0,8.017-3.589,8.017-8.017v-8.551c0-5.01,4.076-9.086,9.086-9.086s9.086,4.076,9.086,9.086v8.551
	c0,4.427,3.589,8.017,8.017,8.017h111.165c9.136,0,16.568-7.432,16.568-16.568V127.733C512,118.597,504.568,111.165,495.432,111.165
	z M495.967,384.267c0,0.295-0.239,0.534-0.534,0.534H392.284v-0.534c0-11.048-7.172-20.446-17.102-23.8v-10.405
	c0-4.427-3.589-8.017-8.017-8.017c-4.427,0-8.017,3.589-8.017,8.017v10.405c-9.93,3.354-17.102,12.752-17.102,23.8v0.534H16.568
	c-0.295,0-0.534-0.239-0.534-0.534V127.733c0-0.295,0.239-0.534,0.534-0.534h325.478v0.534c0,11.048,7.172,20.446,17.102,23.8
	v10.405c0,4.427,3.589,8.017,8.017,8.017c4.427,0,8.017-3.589,8.017-8.017v-10.405c9.93-3.354,17.102-12.752,17.102-23.8v-0.534
	h103.148c0.295,0,0.534,0.239,0.534,0.534V384.267z"/>
<path d="M367.165,188.125c-4.427,0-8.017,3.589-8.017,8.017v17.102c0,4.427,3.589,8.017,8.017,8.017
	c4.427,0,8.017-3.589,8.017-8.017v-17.102C375.182,191.715,371.592,188.125,367.165,188.125z"/>
<path d="M367.165,239.432c-4.427,0-8.017,3.589-8.017,8.017v17.102c0,4.427,3.589,8.017,8.017,8.017
	c4.427,0,8.017-3.589,8.017-8.017v-17.102C375.182,243.021,371.592,239.432,367.165,239.432z"/>
<path d="M367.165,290.739c-4.427,0-8.017,3.589-8.017,8.017v17.102c0,4.427,3.589,8.017,8.017,8.017
	c4.427,0,8.017-3.589,8.017-8.017v-17.102C375.182,294.328,371.592,290.739,367.165,290.739z"/>
<path d="M261.668,173.371c-3.131-3.131-8.207-3.131-11.337,0L96.411,327.292c-3.131,3.131-3.131,8.207,0,11.337
	c1.565,1.566,3.617,2.348,5.668,2.348c2.051,0,4.103-0.782,5.668-2.348l153.921-153.921
	C264.799,181.578,264.799,176.501,261.668,173.371z"/>
<path d="M127.733,246.914c23.28,0,42.221-18.941,42.221-42.221s-18.941-42.221-42.221-42.221s-42.221,18.941-42.221,42.221
	S104.452,246.914,127.733,246.914z M127.733,178.505c14.44,0,26.188,11.748,26.188,26.188s-11.748,26.188-26.188,26.188
	s-26.188-11.748-26.188-26.188S113.293,178.505,127.733,178.505z"/>
<path d="M230.347,265.086c-23.281,0-42.221,18.941-42.221,42.221c0,23.281,18.941,42.221,42.221,42.221s42.221-18.941,42.221-42.221
	C272.568,284.026,253.627,265.086,230.347,265.086z M230.347,333.495c-14.44,0-26.188-11.748-26.188-26.188
	c0-14.44,11.748-26.188,26.188-26.188s26.188,11.748,26.188,26.188C256.534,321.747,244.786,333.495,230.347,333.495z"/>
</svg>